/* XPM */
static char *result[] = {
/* columns rows colors chars-per-pixel */
"100 100 2 1 ",
"  c black",
". c #d411aa",
/* pixels */
"....................................................................................................",
"....................................................................................................",
"....................................................................................................",
"....................................................................................................",
"....................................................................................................",
"....................................................................................................",
"....................................................................................................",
"....................................................................................................",
"....................................................................................................",
"....................................................................................................",
"....................................................................................................",
"....................................................................................................",
"....................................................................................................",
"....................................................................................................",
"....................................................................................................",
"....................................................................................................",
"....................................................................................................",
"....................................................................................................",
"...............................................    .................................................",
"............................................          ..............................................",
"...........................................            .............................................",
".........................................               ............................................",
".........................................                ...........................................",
"........................................                  ..........................................",
".......................................                   ..........................................",
".......................................                    .........................................",
".......................................                    .........................................",
"......................................                     .........................................",
"......................................                     .........................................",
"......................................                     .........................................",
"......................................                     .........................................",
".......................................                    .........................................",
".......................................                    .........................................",
".......................................                    .........................................",
"......................................                     .........................................",
".....................................                       ........................................",
"....................................                         .......................................",
"....................................                          ......................................",
"...................................                            .....................................",
"...................................                            .....................................",
"..................................                              ....................................",
"..................................                              ....................................",
".................................                               ....................................",
".................................                                ...................................",
".................................                                ...................................",
".................................                                ...................................",
".................................                                ...................................",
".................................                                ...................................",
".................................                                ...................................",
".................................                                ...................................",
".................................                                ...................................",
"..................................                              ....................................",
"..................................                              ....................................",
"..................................                             .....................................",
"...................................                            .....................................",
"...................................                           ......................................",
"....................................                          ......................................",
"....................................                         .......................................",
"...................................                            .....................................",
"..................................                              ....................................",
".................................                                ...................................",
"...............................                                   ..................................",
"...............................                                    .................................",
"..............................                                      ................................",
".............................                                        ...............................",
"............................                                          ..............................",
"...........................                                           ..............................",
"...........................                                            .............................",
"..........................                                             .............................",
"..........................                                              ............................",
".........................                                               ............................",
".........................                                                ...........................",
"........................                                                 ...........................",
"........................                                                  ..........................",
"........................                                                  ..........................",
".......................                                                   ..........................",
".......................                                                    .........................",
".......................                                                    .........................",
".......................                                                    .........................",
"......................                                                     .........................",
"......................                                                     .........................",
"......................                                                      ........................",
"......................                                                      ........................",
"......................                                                      ........................",
"......................                                                      ........................",
"......................                                                      ........................",
"......................                                                      ........................",
"......................                                                      ........................",
"......................                                                      ........................",
"....................................................................................................",
"....................................................................................................",
"....................................................................................................",
"....................................................................................................",
"....................................................................................................",
"....................................................................................................",
"....................................................................................................",
"....................................................................................................",
"....................................................................................................",
"....................................................................................................",
"...................................................................................................."
};
